<svg viewBox="0 0 144 44" fill="none" xmlns="http://www.w3.org/2000/svg" class="w-52"><path d="M57.0331 20.1633C55.5886 20.1633 54.3546 19.9187 53.331 19.4297C52.3074 18.9406 51.4771 18.2696 50.8402 17.4223C50.2033 16.5749 49.7313 15.6025 49.4356 14.5107C49.1399 13.4188 48.9863 12.2758 48.9863 11.0702V1.72119H53.1718V11.0702C53.1718 11.7583 53.24 12.4236 53.3765 13.0662C53.513 13.7088 53.7348 14.2832 54.0418 14.7779C54.3489 15.2784 54.7413 15.6707 55.2304 15.9608C55.7194 16.2508 56.3165 16.3986 57.0274 16.3986C57.7382 16.3986 58.3751 16.2508 58.8642 15.9494C59.3589 15.648 59.7513 15.2442 60.0413 14.7381C60.3314 14.232 60.5418 13.6576 60.6783 13.0264C60.8147 12.3895 60.883 11.7412 60.883 11.0702V1.72119H65.0684V11.0702C65.0684 12.3383 64.9092 13.5268 64.5964 14.6244C64.278 15.7219 63.8003 16.6887 63.152 17.5246C62.5037 18.3606 61.6734 19.0089 60.6612 19.4695C59.649 19.9301 58.4377 20.1633 57.0217 20.1633H57.0331Z" class="fill-primary"></path><path d="M71.995 9.56319V20.0325H67.8096V1.72119H71.1306L79.5299 12.5032V1.72119H83.7154V20.0325H80.292L71.995 9.56319Z" class="fill-primary"></path><path d="M86.6782 20.0382V1.72119H90.8637V20.0325H86.6782V20.0382Z" class="fill-primary"></path><path d="M101.771 20.1632C100.406 20.1632 99.1775 19.9016 98.08 19.3898C96.9825 18.878 96.0385 18.1728 95.248 17.2857C94.4575 16.3986 93.8491 15.4034 93.4226 14.2945C92.9961 13.1856 92.7856 12.0369 92.7856 10.8483C92.7856 9.6598 93.0131 8.4599 93.4624 7.35099C93.9116 6.24208 94.5429 5.25827 95.3504 4.39958C96.1579 3.54088 97.1133 2.85847 98.2222 2.35235C99.3311 1.84624 100.537 1.59033 101.85 1.59033C103.164 1.59033 104.415 1.85761 105.513 2.39216C106.61 2.92671 107.554 3.63756 108.345 4.53037C109.135 5.42319 109.743 6.42405 110.17 7.53297C110.596 8.64188 110.807 9.77354 110.807 10.9223C110.807 12.1449 110.585 13.305 110.142 14.4025C109.698 15.5001 109.067 16.4896 108.254 17.354C107.435 18.224 106.479 18.9064 105.382 19.4069C104.284 19.9073 103.079 20.1575 101.771 20.1575V20.1632ZM101.793 16.3986C102.595 16.3986 103.289 16.2394 103.886 15.9209C104.483 15.6024 104.978 15.1816 105.37 14.6584C105.763 14.1353 106.058 13.5382 106.252 12.8785C106.445 12.2131 106.548 11.5421 106.548 10.854C106.548 10.1659 106.445 9.46646 106.24 8.80111C106.036 8.14145 105.729 7.55003 105.325 7.03253C104.915 6.51504 104.415 6.1056 103.818 5.80989C103.221 5.50849 102.55 5.36064 101.799 5.36064C100.997 5.36064 100.304 5.51986 99.7178 5.83832C99.132 6.15678 98.6373 6.5776 98.2335 7.10078C97.8298 7.62395 97.5341 8.21537 97.3407 8.88072C97.1474 9.54038 97.045 10.2171 97.045 10.9052C97.045 11.5933 97.1474 12.2871 97.3521 12.941C97.5568 13.595 97.8582 14.1808 98.2563 14.7096C98.6544 15.2385 99.1548 15.6479 99.7519 15.9493C100.349 16.2507 101.026 16.3986 101.793 16.3986ZM100.673 12.8159H104.608L111.068 20.0381H107.133L100.673 12.8159Z" class="fill-complement"></path><path d="M120.486 20.1633C119.041 20.1633 117.807 19.9187 116.784 19.4297C115.76 18.9406 114.93 18.2696 114.293 17.4223C113.656 16.5749 113.184 15.6025 112.888 14.5107C112.593 13.4188 112.439 12.2758 112.439 11.0702V1.72119H116.624V11.0702C116.624 11.7583 116.693 12.4236 116.829 13.0662C116.966 13.7088 117.187 14.2832 117.494 14.7779C117.802 15.2784 118.194 15.6707 118.683 15.9608C119.172 16.2508 119.769 16.3986 120.48 16.3986C121.191 16.3986 121.828 16.2508 122.317 15.9494C122.812 15.648 123.204 15.2442 123.494 14.7381C123.784 14.232 123.994 13.6576 124.131 13.0264C124.267 12.3895 124.336 11.7412 124.336 11.0702V1.72119H128.521V11.0702C128.521 12.3383 128.362 13.5268 128.049 14.6244C127.731 15.7219 127.253 16.6887 126.605 17.5246C125.956 18.3606 125.126 19.0089 124.114 19.4695C123.102 19.9301 121.89 20.1633 120.474 20.1633H120.486Z" class="fill-primary"></path><path d="M144 16.3247V20.0382H131.262V1.72119H143.773V5.43463H135.447V8.99452H142.595V12.4236H135.447V16.319H144V16.3247Z" class="fill-primary"></path><path d="M48.4575 33.4701V22.8473H52.4098C53.5756 22.8473 54.5423 23.0861 55.3271 23.5581C56.1062 24.0301 56.6976 24.6727 57.0957 25.4746C57.4937 26.2764 57.6928 27.1692 57.6928 28.1473C57.6928 29.2278 57.4767 30.1604 57.0388 30.9623C56.6009 31.7584 55.9868 32.3783 55.1963 32.8161C54.4058 33.254 53.4789 33.4758 52.4155 33.4758H48.4632L48.4575 33.4701ZM55.1963 28.1416C55.1963 27.5218 55.0883 26.9759 54.8665 26.5039C54.6447 26.0319 54.3319 25.6622 53.9111 25.3949C53.4903 25.1277 52.9898 24.9969 52.4041 24.9969H50.8971V31.3148H52.4041C53.0012 31.3148 53.5073 31.1784 53.9168 30.8997C54.3319 30.6267 54.6447 30.2457 54.8665 29.7624C55.0883 29.279 55.1963 28.7387 55.1963 28.136V28.1416Z" class="fill-primary"></path><path d="M66.2799 31.3148V33.4701H58.8359V22.8473H66.1434V25.0026H61.2812V27.0668H65.4553V29.0572H61.2812V31.3148H66.2742H66.2799Z" class="fill-primary"></path><path d="M73.8259 25.9693C73.7974 25.9182 73.6894 25.8442 73.5131 25.7362C73.3368 25.6338 73.1093 25.5201 72.8421 25.4007C72.5748 25.2812 72.2791 25.1732 71.9606 25.0879C71.6422 24.9969 71.3237 24.9514 71.0053 24.9514C70.5901 24.9514 70.266 25.0253 70.0328 25.1675C69.7997 25.3097 69.6916 25.5315 69.6916 25.8272C69.6916 26.066 69.7769 26.2537 69.9532 26.3902C70.1295 26.5266 70.3797 26.6517 70.7039 26.7541C71.028 26.8565 71.4318 26.9816 71.9094 27.1181C72.5862 27.2943 73.1719 27.5104 73.6666 27.7663C74.1614 28.0222 74.5424 28.3464 74.8097 28.7388C75.0713 29.1368 75.2078 29.66 75.2078 30.314C75.2078 30.9111 75.0997 31.4115 74.8779 31.821C74.6561 32.2304 74.3661 32.5659 73.9908 32.8162C73.6212 33.0664 73.1946 33.254 72.717 33.3678C72.2393 33.4815 71.7502 33.5384 71.2384 33.5384C70.7266 33.5384 70.1921 33.4872 69.6518 33.3848C69.1116 33.2768 68.5884 33.1289 68.0936 32.9356C67.5989 32.7422 67.1383 32.5034 66.7231 32.2247L67.7979 30.0865C67.8377 30.1377 67.9685 30.2287 68.1846 30.3652C68.4007 30.5017 68.6737 30.6381 68.9978 30.786C69.322 30.9338 69.6802 31.059 70.0783 31.167C70.4764 31.2751 70.8801 31.3319 71.2896 31.3319C71.7275 31.3319 72.0516 31.2637 72.2677 31.1272C72.4838 30.9907 72.5862 30.8031 72.5862 30.5585C72.5862 30.2912 72.4724 30.0808 72.2506 29.933C72.0289 29.7851 71.7218 29.6486 71.3408 29.5292C70.9598 29.4098 70.5162 29.2733 70.0215 29.1255C69.3732 28.9264 68.8386 28.7046 68.4178 28.4544C67.997 28.2042 67.6842 27.9028 67.4795 27.5446C67.2748 27.1863 67.1724 26.7427 67.1724 26.2025C67.1724 25.4575 67.3487 24.832 67.7013 24.3202C68.0538 23.8084 68.5315 23.4217 69.1286 23.1601C69.7257 22.8985 70.374 22.7677 71.0792 22.7677C71.5739 22.7677 72.0573 22.8303 72.5179 22.9497C72.9786 23.0691 73.4107 23.217 73.8145 23.3989C74.2183 23.5809 74.5765 23.7572 74.895 23.9392L73.8202 25.975L73.8259 25.9693Z" class="fill-primary"></path><path d="M84.4147 24.9968H81.1903V33.4644H78.745V24.9968H75.5093V22.8416H84.4147V24.9968Z" class="fill-primary"></path><path d="M85.3076 33.4701V22.8473H87.7529V33.4701H85.3076Z" class="fill-primary"></path><path d="M91.9267 27.3909V33.4644H89.4814V22.8416H91.4206L96.3283 29.097V22.8416H98.7736V33.4644H96.7775L91.9324 27.3909H91.9267Z" class="fill-primary"></path><path d="M103.17 22.8416H105.808L109.448 33.4644H106.94L106.224 31.0873H102.738L102.021 33.4644H99.5132L103.164 22.8416H103.17ZM105.717 29.3984L104.483 25.3096L103.249 29.3984H105.717Z" class="fill-primary"></path><path d="M118.262 24.9968H115.038V33.4644H112.593V24.9968H109.357V22.8416H118.262V24.9968Z" class="fill-primary"></path><path d="M119.155 33.4701V22.8473H121.6V33.4701H119.155Z" class="fill-primary"></path><path d="M127.97 33.544C127.173 33.544 126.457 33.3905 125.814 33.0891C125.172 32.7877 124.62 32.3783 124.159 31.8608C123.699 31.349 123.341 30.7689 123.096 30.1263C122.846 29.4837 122.721 28.8184 122.721 28.1303C122.721 27.4422 122.851 26.7484 123.113 26.1115C123.375 25.4746 123.744 24.9002 124.216 24.3998C124.688 23.8993 125.246 23.5013 125.894 23.2112C126.542 22.9212 127.247 22.7791 128.009 22.7791C128.771 22.7791 129.505 22.9326 130.148 23.234C130.79 23.5354 131.342 23.9505 131.802 24.468C132.263 24.9855 132.621 25.5656 132.866 26.2138C133.116 26.8564 133.241 27.5104 133.241 28.1814C133.241 28.8923 133.11 29.5633 132.854 30.2002C132.593 30.8372 132.229 31.4115 131.751 31.9119C131.274 32.4124 130.716 32.8161 130.074 33.1062C129.431 33.4019 128.732 33.5497 127.964 33.5497L127.97 33.544ZM125.211 28.1587C125.211 28.5681 125.274 28.9662 125.393 29.3472C125.513 29.7282 125.689 30.0751 125.922 30.3708C126.155 30.6722 126.446 30.9111 126.792 31.0874C127.139 31.2693 127.537 31.3546 127.987 31.3546C128.436 31.3546 128.862 31.2637 129.209 31.076C129.556 30.8883 129.846 30.6438 130.074 30.3367C130.301 30.0296 130.472 29.6827 130.585 29.2961C130.699 28.915 130.756 28.5227 130.756 28.1189C130.756 27.7151 130.694 27.3171 130.574 26.9361C130.455 26.555 130.278 26.2138 130.04 25.9124C129.801 25.6054 129.505 25.3722 129.158 25.2016C128.811 25.031 128.419 24.9457 127.981 24.9457C127.515 24.9457 127.111 25.0367 126.764 25.213C126.423 25.395 126.133 25.6338 125.9 25.9409C125.666 26.248 125.49 26.5892 125.376 26.9759C125.263 27.3626 125.206 27.7493 125.206 28.153L125.211 28.1587Z" class="fill-primary"></path><path d="M136.812 27.3909V33.4644H134.367V22.8416H136.306L141.214 29.097V22.8416H143.659V33.4644H141.663L136.818 27.3909H136.812Z" class="fill-primary"></path><path d="M69.1287 38.0196H67.582V42.0345H66.6493V38.0196H65.1025V37.1951H69.1287V38.0196Z" class="fill-complement"></path><path d="M69.7314 42.0345V37.1951H71.8697C72.0914 37.1951 72.2962 37.2406 72.4838 37.3315C72.6715 37.4225 72.8364 37.5476 72.9729 37.7012C73.115 37.8547 73.2174 38.0253 73.2913 38.2187C73.3653 38.412 73.4051 38.6054 73.4051 38.8044C73.4051 39.0034 73.371 39.2082 73.297 39.3958C73.2231 39.5835 73.1264 39.7484 72.9956 39.8906C72.8648 40.0327 72.7113 40.1408 72.535 40.2147L73.6382 42.0345H72.6032L71.6081 40.4138H70.6698V42.0345H69.7314ZM70.6698 39.5835H71.8469C71.9663 39.5835 72.0687 39.5494 72.1597 39.4754C72.2507 39.4015 72.3246 39.3105 72.3758 39.1911C72.4326 39.0717 72.4554 38.9409 72.4554 38.7987C72.4554 38.6452 72.4213 38.5087 72.3587 38.395C72.2962 38.2812 72.2165 38.1846 72.1142 38.1163C72.0175 38.0481 71.9095 38.014 71.7957 38.014H70.6584V39.5835H70.6698Z" class="fill-complement"></path><path d="M75.5094 37.1951H76.4648L78.2448 42.0345H77.278L76.8743 40.8289H75.1L74.6962 42.0345H73.7295L75.5151 37.1951H75.5094ZM76.6468 40.1635L75.9814 38.1675L75.3104 40.1635H76.6468Z" class="fill-complement"></path><path d="M78.8529 37.1951L80.1609 40.9142L81.4575 37.1951H82.447L80.6158 42.0345H79.7116L77.8691 37.1951H78.8586H78.8529Z" class="fill-complement"></path><path d="M86.3198 41.2042V42.0287H82.959V37.1893H86.2573V38.0139H83.903V39.1797H85.9388V39.9417H83.903V41.2042H86.3198Z" class="fill-complement"></path><path d="M87.0532 42.0345V37.1951H87.9915V41.2099H90.4596V42.0345H87.0532Z" class="fill-complement"></path><path d="M93.4339 38.9238V42.0287H92.4956V37.1893H93.2463L95.7484 40.3796V37.195H96.6867V42.0231H95.902L93.4339 38.9181V38.9238Z" class="fill-complement"></path><path d="M101.048 41.2042V42.0287H97.6875V37.1893H100.986V38.0139H98.6315V39.1797H100.667V39.9417H98.6315V41.2042H101.048Z" class="fill-complement"></path><path d="M105.405 38.0196H103.858V42.0345H102.925V38.0196H101.378V37.1951H105.405V38.0196Z" class="fill-complement"></path><path d="M107.656 37.2064H108.526L109.078 38.8101L109.635 37.2064H110.5L109.669 39.4072L110.284 40.9483L111.654 37.1951H112.678L110.744 42.0345H109.931L109.078 40.0043L108.231 42.0345H107.418L105.49 37.1951H106.496L107.872 40.9483L108.47 39.4072L107.645 37.2064H107.656Z" class="fill-complement"></path><path d="M115.072 42.0685C114.72 42.0685 114.395 42.0003 114.111 41.8638C113.821 41.7273 113.576 41.5397 113.366 41.3065C113.161 41.0734 113.002 40.8118 112.888 40.5161C112.775 40.2203 112.718 39.919 112.718 39.6119C112.718 39.2877 112.78 38.9806 112.9 38.6906C113.019 38.3949 113.184 38.1333 113.394 37.9059C113.605 37.6784 113.855 37.4964 114.145 37.3599C114.435 37.2291 114.748 37.1609 115.095 37.1609C115.442 37.1609 115.76 37.2291 116.05 37.3713C116.34 37.5135 116.585 37.7011 116.789 37.94C116.994 38.1788 117.153 38.4404 117.267 38.7304C117.381 39.0204 117.438 39.3218 117.438 39.6289C117.438 39.936 117.381 40.2488 117.261 40.5445C117.142 40.8402 116.977 41.1018 116.767 41.3293C116.556 41.5567 116.306 41.7387 116.016 41.8695C115.726 42.0003 115.413 42.0685 115.072 42.0685ZM113.667 39.6119C113.667 39.8223 113.702 40.0213 113.764 40.2204C113.827 40.4137 113.918 40.59 114.043 40.7435C114.162 40.8971 114.31 41.0165 114.486 41.1018C114.663 41.1928 114.862 41.2326 115.083 41.2326C115.305 41.2326 115.51 41.1871 115.692 41.0904C115.874 40.9937 116.016 40.8743 116.136 40.7151C116.255 40.5559 116.34 40.3853 116.403 40.1919C116.465 39.9986 116.494 39.8052 116.494 39.6119C116.494 39.4015 116.46 39.2024 116.397 39.0091C116.329 38.8157 116.238 38.6451 116.118 38.4916C115.999 38.338 115.851 38.2186 115.675 38.1276C115.499 38.0423 115.305 37.9968 115.083 37.9968C114.85 37.9968 114.646 38.0423 114.475 38.139C114.304 38.2357 114.151 38.3551 114.037 38.5086C113.918 38.6622 113.827 38.8328 113.77 39.0261C113.707 39.2138 113.679 39.4128 113.679 39.6119H113.667Z" class="fill-complement"></path><path d="M118.16 42.0345V37.1951H120.298C120.52 37.1951 120.724 37.2406 120.912 37.3315C121.1 37.4225 121.265 37.5476 121.401 37.7012C121.543 37.8547 121.646 38.0253 121.72 38.2187C121.793 38.412 121.833 38.6054 121.833 38.8044C121.833 39.0034 121.799 39.2082 121.725 39.3958C121.651 39.5835 121.555 39.7484 121.424 39.8906C121.293 40.0327 121.14 40.1408 120.963 40.2147L122.066 42.0345H121.031L120.036 40.4138H119.098V42.0345H118.16ZM119.098 39.5835H120.275C120.395 39.5835 120.497 39.5494 120.588 39.4754C120.679 39.4015 120.753 39.3105 120.804 39.1911C120.861 39.0717 120.884 38.9409 120.884 38.7987C120.884 38.6452 120.849 38.5087 120.787 38.395C120.724 38.2812 120.645 38.1846 120.542 38.1163C120.446 38.0481 120.338 38.014 120.224 38.014H119.087V39.5835H119.098Z" class="fill-complement"></path><path d="M122.686 42.0344V37.195H123.625V39.4924L125.655 37.1836H126.69L124.836 39.3332L126.804 42.0287H125.74L124.233 39.9417L123.619 40.5843V42.0287H122.681L122.686 42.0344Z" class="fill-complement"></path><path d="M15.9522 9.52335C14.4225 11.0417 13.6548 12.8671 13.6548 15.0054C13.6548 15.2442 13.6662 15.4717 13.6946 15.6821C13.7344 16.2166 13.8197 16.7228 13.9448 17.2004C13.9846 17.3426 14.0358 17.4905 14.0927 17.644C14.1609 17.843 14.2405 18.0307 14.3258 18.2127C15.2243 20.3793 16.3844 22.4493 17.8061 24.434C18.8752 25.9125 20.0808 27.3342 21.4342 28.7161C22.7991 27.3399 24.0046 25.9125 25.0624 24.434C26.4386 22.5232 27.5759 20.5215 28.4801 18.4231C28.6052 18.1274 28.7246 17.8317 28.8384 17.536C28.8782 17.4222 28.918 17.3085 28.9464 17.2004C29.0715 16.7228 29.1568 16.2166 29.1966 15.6821C29.208 15.4717 29.2194 15.2442 29.2194 15.0054C29.2194 12.8671 28.4687 11.0417 26.9617 9.52335C25.4434 8.00499 23.6009 7.24866 21.4399 7.24866C19.279 7.24866 17.4649 8.00499 15.9579 9.52335" class="fill-complement"></path><path d="M2.5031 1.25483C2.96941 1.04442 3.46416 0.930685 3.99871 0.919312H7.01268C11.9601 1.03305 16.2764 2.64808 19.9557 5.77009C18.5511 5.96913 17.2715 6.48094 16.1171 7.3112C15.6793 7.61828 15.2584 7.97655 14.8547 8.38599C14.6841 8.55659 14.5249 8.73288 14.3713 8.91486C12.87 10.6323 12.1137 12.651 12.1137 14.9883C12.1137 15.2556 12.1194 15.5228 12.1364 15.7901C12.1933 16.41 12.2957 17.0071 12.4549 17.5814C12.5117 17.7805 12.5686 17.9624 12.6255 18.1274C12.7108 18.3662 12.8018 18.5994 12.8984 18.8211C13.9789 21.42 15.3779 23.8994 17.0953 26.2651C18.0108 27.5446 19.0117 28.79 20.1092 29.9956C17.9312 31.8665 15.3494 32.7991 12.3696 32.7991C9.05422 32.7991 6.22222 31.6277 3.8736 29.279C1.63872 27.0442 0.46725 24.36 0.353516 21.2266V4.56451C0.381949 3.56933 0.751587 2.71063 1.4738 1.9941C1.79795 1.68702 2.13915 1.4368 2.50879 1.25483" class="fill-primary"></path><path d="M40.3884 1.25483C40.7694 1.4368 41.122 1.68133 41.4404 1.9941C42.1456 2.71063 42.5039 3.56933 42.5152 4.56451V22.546C42.3901 28.1246 40.3372 32.9015 36.3565 36.8822C34.1387 39.1171 31.6649 40.7492 28.9353 41.7728C26.6151 42.6429 24.113 43.0807 21.4288 43.0807C15.6113 43.0807 10.6468 41.0165 6.54665 36.8822C4.4255 34.7895 2.85027 32.4693 1.82666 29.9273C2.05413 30.1662 2.2816 30.405 2.52044 30.6439C5.25007 33.3678 8.53132 34.7326 12.3642 34.7326C14.6389 34.7326 16.7145 34.2606 18.5855 33.3223C19.5977 32.8162 20.5474 32.1793 21.4288 31.4059C21.4573 31.3774 21.4857 31.349 21.5141 31.3206C21.7643 31.1102 22.0146 30.8827 22.2534 30.6439C22.8448 30.0411 23.368 29.4155 23.8343 28.7672C24.5224 27.937 25.1707 27.101 25.7735 26.2594C27.4454 23.9676 28.8102 21.5678 29.8622 19.0486C30.0329 18.696 30.1807 18.3435 30.3058 17.9966C30.3456 17.8544 30.3911 17.7179 30.4309 17.5758C30.6015 17.0014 30.6982 16.4043 30.7266 15.7844C30.7551 15.5172 30.7664 15.2499 30.7664 14.9826C30.7664 12.3951 29.8622 10.1944 28.0482 8.38599C26.5867 6.9245 24.8864 6.05443 22.9472 5.77009C24.7726 4.21193 26.7687 3.02909 28.9353 2.22726C31.0849 1.41406 33.3994 0.976179 35.8731 0.919312H38.8871C39.4216 0.930685 39.9221 1.04442 40.3827 1.25483" class="fill-primary"></path><path d="M21.4345 17.0242C22.8666 17.0242 24.0276 15.8632 24.0276 14.431C24.0276 12.9989 22.8666 11.8379 21.4345 11.8379C20.0023 11.8379 18.8413 12.9989 18.8413 14.431C18.8413 15.8632 20.0023 17.0242 21.4345 17.0242Z" fill="white"></path><g style="mix-blend-mode:multiply"><path d="M18.9604 7.61829C23.3563 8.23245 25.3694 13.288 23.6293 16.1086C26.2281 13.3903 24.2946 7.84007 18.9604 7.61829Z" fill="#A5A7A9"></path></g></svg>